<?xml version="1.0" encoding="UTF-8"?>
<svg id="Calque_1" data-name="Calque 1" xmlns="http://www.w3.org/2000/svg" version="1.1" xmlns:xlink="http://www.w3.org/1999/xlink" viewBox="0 0 800 550">
  <defs>
    <style>
      .cls-1 {
        fill: #f5ba00;
      }

      .cls-1, .cls-2 {
        stroke-width: 0px;
      }

      .cls-2 {
        fill: none;
      }

      .cls-3 {
        clip-path: url(#clippath-1);
      }

      .cls-4 {
        clip-path: url(#clippath);
      }
    </style>
    <clipPath id="clippath">
      <rect class="cls-2" y="-125" width="800" height="800"/>
    </clipPath>
    <clipPath id="clippath-1">
      <rect class="cls-2" y="-125" width="800" height="800"/>
    </clipPath>
  </defs>
  <g class="cls-4">
    <path class="cls-1" d="M625.6,94.4l-424.3,424.3c-16.3,16.3-42.7,16.3-59,0s-16.3-42.7,0-59L566.6,35.4c16.3-16.3,42.7-16.3,59,0s16.3,42.7,0,59Z"/>
  </g>
  <g class="cls-3">
    <path class="cls-1" d="M174.4,35.4c16.3-16.3,42.7-16.3,59,0l424.3,424.3c16.3,16.3,16.3,42.7,0,59-16.3,16.3-42.7,16.3-59,0L174.4,94.4c-16.3-16.3-16.3-42.7,0-59Z"/>
  </g>
</svg>