<?xml version="1.0" encoding="UTF-8"?>
<svg id="Calque_1" data-name="Calque 1" xmlns="http://www.w3.org/2000/svg" version="1.1" xmlns:xlink="http://www.w3.org/1999/xlink" viewBox="0 0 800 550">
  <defs>
    <style>
      .cls-1 {
        fill: #f5ba00;
      }

      .cls-1, .cls-2 {
        stroke-width: 0px;
      }

      .cls-2 {
        fill: none;
      }

      .cls-3 {
        clip-path: url(#clippath);
      }
    </style>
    <clipPath id="clippath">
      <rect class="cls-2" y="-125" width="800" height="800"/>
    </clipPath>
  </defs>
  <g class="cls-3">
    <path class="cls-1" d="M700,516.7H100c-23,0-41.7-18.7-41.7-41.7s18.7-41.7,41.7-41.7h600c23,0,41.7,18.7,41.7,41.7s-18.7,41.7-41.7,41.7ZM700,316.7H100c-23,0-41.7-18.7-41.7-41.7s18.7-41.7,41.7-41.7h600c23,0,41.7,18.7,41.7,41.7s-18.7,41.7-41.7,41.7ZM700,116.7H100c-23,0-41.7-18.7-41.7-41.7s18.7-41.7,41.7-41.7h600c23,0,41.7,18.7,41.7,41.7s-18.7,41.7-41.7,41.7Z"/>
  </g>
</svg>