<?xml version="1.0" encoding="UTF-8"?>
<svg id="Calque_1" data-name="Calque 1" xmlns="http://www.w3.org/2000/svg" version="1.1" xmlns:xlink="http://www.w3.org/1999/xlink" viewBox="0 0 4478.8 669.1">
  <defs>
    <style>
      .cls-1 {
        fill: none;
      }

      .cls-1, .cls-2 {
        stroke-width: 0px;
      }

      .cls-3 {
        clip-path: url(#clippath-1);
      }

      .cls-4 {
        clip-path: url(#clippath);
      }

      .cls-2 {
        fill: #75683b;
      }
    </style>
    <clipPath id="clippath">
      <rect class="cls-1" x="787.4" y="-621.1" width="458.6" height="1916" transform="translate(671.8 1351) rotate(-89.5)"/>
    </clipPath>
    <clipPath id="clippath-1">
      <rect class="cls-1" x="2504.1" y="107.6" width="1916" height="458.6" transform="translate(-2.5 27.2) rotate(-.5)"/>
    </clipPath>
  </defs>
  <g>
    <g class="cls-4">
      <path class="cls-2" d="M757.8,358.3c-17.2,19.4-33.4,37.5-49.5,55.8-25.9,29.4-51.7,59.1-77.8,88.4-5.8,6.6-12.1,13-19.2,18.2-2.9,2.1-8.4.8-12.4,1-4.1-13.7,4.8-20.3,10.6-27.5,27.8-34.3,56.1-68.2,84.2-102.3,9.3-11.3,18.4-22.7,29.6-36.5-5.4-1.7-8.6-3.6-11.8-3.6-89.3-.2-178.5-.2-267.8,0-1.8,0-3.6,1.3-7,2.5-1.3,17.5,8.7,30.9,19,43.5,20.3,24.8,46.5,41.8,75.4,55,11.4,5.2,22.6,11,35.5,17.4-3.4,7.6-5.9,13.3-8.2,18.4-60.1-2.4-122.1-51.1-160.2-127.4.9,25.7,1.7,46.3,2.4,66.3-14.8,8.4-23,7.1-25.6-4.1-1.6-6.5-.8-13.6-1.1-20.5-.6-16.4-1.1-32.8-1.7-51-21.7-2-40.8-2.7-59.2,1.6-12,22.9,8.4,49.5-11.6,72.1-7.2-3.9-13.6-7.5-21-11.5l.5-59.8c-14.1-5.2-26.2-3.2-37.9-.3-28.9,57.5-62.3,80.3-106.1,68-51.1-14.4-77.4-39.9-77.6-89.8-.2-41.5,27.7-77.8,66.2-86.6,51.3-11.9,86,10,118.1,76l32.7.3c9-12.4,2.5-25.7,4.7-37.9,1.9-10.7-3.9-23.9,10.1-32,15.4,6.9,11.8,20.9,13,32.8,1.2,11.5,2.4,23,3.6,35.3,21.8,5.2,41.8,4.9,62.9,2.8,8.1-33.7-1.6-67.5,6.9-99.1,11.4-2.2,14.2,3.8,14.9,11.1,1.5,17.6,2.7,35.2,3.7,52.8.4,7.7,0,15.5-.1,26.8,14.8-24.7,25-47.8,40.7-66.4,15.6-18.4,35.6-33.6,55.5-47.7,20.2-14.4,41.3-28.8,72.2-31.4-4.7,8-6.1,13.9-9.9,16.4-13,8.8-27.1,15.8-40.1,24.6-35.7,24.1-65.5,53.2-78.7,95.8-1.4,4.4-1.4,9.3-2,13.7,26,7,245.6,8.1,298.9,1.8-3.8-6.4-6.9-12.2-10.6-17.5-38.3-55.8-76.7-111.5-115-167.4-4.4-6.5-8.6-13.1-11.8-20.2-1.2-2.6.8-6.6,1.7-11.8,13.3,4.3,18.6,13.8,24.8,22.2,39,52.9,78,105.9,117,158.7,6.3,8.5,13,16.6,21.3,27,11.3-13.1,20.9-24.1,30.3-35.1,42.7-50,85.5-99.8,127.8-150.1,8.9-10.6,18.1-17.7,36.4-13.8,62.1,63.4,121.1,134.1,185.8,202.2,5.9-5.9,11.2-10.1,14.9-15.3,26.5-36.5,52.5-73.5,79.2-109.8,7.3-9.9,13.2-21.8,25.7-27.7,9.1,5.1,6.5,11.8,2.9,17.6-12,19.1-24.5,37.9-37,56.7-17.8,26.9-35.8,53.7-54.7,82,12.4,8.2,23.6,5.3,35.9,3.8,18-24.2,36.1-48.5,54.3-72.8,22.4-29.8,44.8-59.6,67.4-89.2,6.4-8.4,12.5-18.2,25.2-14.9,8.4,7.6,5.4,14.9.5,21.5-11.7,15.7-23.7,31.3-35.9,46.6-23.3,29.1-46.8,58-70.2,87.1-4.7,5.8-8.8,12.1-13.8,18.8,19.8,4.3,89.9,3.8,112.7-.4,8.8-9.3,2.3-28.1,19.3-33.5,13.5,7.6,3.3,22.1,10.9,33.8l23.4.2c4.6-24.1-.8-47.9,7.7-75.6,16,26,8.2,51.5,16.1,75.6l20.5.2c9.7-11.3-1.2-29,13.5-38,14.4,8.9,7.4,24,12.6,36,11.8,8.6,25.2,3.9,40.5,3.7,9.7-52.1,37.4-88.6,89.9-102.9-1.2-22.2-2.3-42.2-3.5-64.9-15.1-.7-28.5-1.6-41.9-1.8-12.7-.3-25.5.6-38.2.2-7.8-.3-7.8-.9-15.8-15.9,4.5-2.9,9.1-8.4,13.7-8.5,27.4-.6,54.9-1.1,82.3.6,17.2,1.1,23.8,9.5,24.8,27,1.1,19.4.9,38.9,1.4,59.4,35.1,6.4,64.9,20,87.5,49.9,5.1-6.4,9.2-11.3,13.1-16.2,30.3-38.2,70-55.5,118.3-53.8,8.9.3,18.4,1.4,17.2,15-6.6,8.8-17,7.9-26.4,9.2-22.8,3.2-43.7,10.6-61.9,25.1-21.1,16.7-32.7,38.7-37.1,64.8-.6,3.5,1.3,7.4,2.6,13.6,9.7.5,19.2,1.3,28.8,1.5,61.8,1.2,123.6,2.3,185.4,3.7,11.1.2,11.1.8,20.9,11.3-2.7,9.9-10.9,9.7-18.7,10-23.5.8-47,1.8-70.6,2.3-41.2.7-82.4,1-123.6,1.6-4.7,0-9.4,1.1-16.9,2.1,9.4,30.3,28,50.3,51.7,66.8,24,16.7,52.1,21.3,81.3,26.2l-.2,25.2c-71.5,3.2-121.5-29.5-159.4-81.2-23.5,16.7-45.6,32.3-71.8,50.9-.1,4.3-.3,13.8-.8,23.4-1.1,19.5-1.4,39.1-3.9,58.5-2.4,18.6-12.1,26.3-29.6,25.7-20.6-.7-41.1-1.9-61.6-3.5-15.5-1.1-17.8-3.7-22.9-22.8,26.1-15.7,55.4-2.6,82.6-7.6,8.6-16.6,9.1-35.7,2.1-72.2-20.3-10.5-41.2-19.2-59.5-31.5-19.2-13-28-34.7-36.2-58.2l-40-.3c-10.8,12.5,3.6,32.5-14.2,43.5-23.5-7-4.9-30.2-17-43.4h-17.6c-9.2,25.2,4.5,51.4-5.2,74.8-10,5.1-15-.1-16.4-7.3-1.7-8.5-1.2-17.5-1.4-26.3-.4-13.5-.6-27-.9-41.2l-25.8-.2-.2,30.1c-8.9,7.7-15.9,5.3-19.6-3.2-3.5-7.9-4.7-16.8-6.8-24.9-22.7-5.3-87.9-5.9-113-.6,21.2,31.5,46.9,58.2,69.9,86.8,23.2,29,46.8,57.6,68.8,84.7-1.1,13.8-8.7,14.8-19.7,14.7-48.7-61.7-98.4-124.8-148.4-188.2-14.2-3.9-28.3-3.2-45,.7,10.2,21.7,27.2,35.2,40.5,51.4,13,16,27,31.1,40.4,46.8,13.9,16.4,27.4,32.9,44.2,53.3-5.2,4.8-9.1,8.5-14.7,13.7-28.5-25.9-47.6-54.4-69.9-79.9-21.9-25-42.5-51.1-65.3-78.6-9.2,8.5-17.1,15.4-24.5,22.7-53.6,53.3-107,106.7-160.6,159.9-5.6,5.5-11.4,11-17.9,15.1-14.9,9.5-24.3,8-35.1-6.7-25.2-33.8-49.9-68.1-74.5-102.3-18.3-25.5-36.3-51.2-54.5-76.7-3.3-4.6-7.3-8.7-12.7-15l-.3.3ZM788.5,322.4c40.9.3,74.8.7,108.8.9,35.2.2,70.5.2,105.7,0,33.6-.2,67.4,1.7,106.5-1.7-55.2-64.2-106.9-124.6-161.8-185.6-52.5,61.6-103.2,121-159.1,186.5h0ZM916.2,528.8c63-57.8,124.7-114.4,187.8-172.4-22.4-5.1-288.9-4.6-309-.2,7.9,17.7,97.3,145.6,121.1,172.5h0ZM217.2,339.5c-.3-41.3-30.6-73.3-68.2-71.9-32.7,1.2-64,31-64.4,61.2-.4,36,34.6,74.7,68.3,75.3,37,.7,64.6-27.1,64.3-64.6h0ZM1694.8,322.5c12.9-17.8,11-34-1.7-49.3-16-19.2-34.2-34.1-64.4-30.5,1.8,28.1.5,54.2,9.9,79.3l56.2.4ZM1543.7,320.3c19.7,3.4,39.4,5.1,60.1-.6,1-24.9,3-48.6-2.8-72.3-37.1,9.9-56.4,34.9-57.2,72.9ZM1547.7,354.1c10.8,34.4,29.3,50.2,58.9,52.7,3.9-22.7,3.6-28-2.8-52.2l-56.2-.4ZM1696.3,354.4c-18.2-1.3-36.1-2.4-54.5.7l-.4,49.1c31.4-4.3,48.8-20.2,54.9-49.8Z"/>
    </g>
    <path class="cls-2" d="M533.3,401.5c11.7-16.9,21-19.7,30.4-9,5.8,6.6,6.4,13.9,1.1,21-4.5,6.1-10.9,7.3-18,4.8-5.1-1.8-5.7-2.5-13.5-16.8Z"/>
    <path class="cls-2" d="M527.3,254.3c11.7-16.9,21-19.7,30.4-9,5.8,6.6,6.4,13.9,1.1,21-4.5,6.1-10.9,7.3-18,4.8-5.1-1.8-5.7-2.5-13.5-16.8Z"/>
    <path class="cls-2" d="M1827.2,398.7c.5-8.5,8.9-15.6,18.1-14.8,7.9.7,12.1,5.4,12.5,13.2.5,9.5-6.7,16.6-16.1,16.4-8.2-.1-15-7.1-14.5-14.9h0Z"/>
    <path class="cls-2" d="M1828.1,280.8c.5-8.5,8.9-15.6,18.1-14.8,7.9.7,12.1,5.4,12.5,13.2.5,9.5-6.7,16.6-16.1,16.4-8.2-.1-15-7.1-14.5-14.9h0Z"/>
  </g>
  <g>
    <g class="cls-3">
      <path class="cls-2" d="M3720.7,358c-5.4,6.3-9.4,10.3-12.7,15-18.3,25.5-36.2,51.3-54.5,76.7-24.6,34.2-49.4,68.4-74.5,102.3-10.8,14.6-20.2,16.1-35.1,6.7-6.6-4.2-12.4-9.6-17.9-15.1-53.6-53.2-107-106.6-160.6-159.9-7.4-7.3-15.3-14.2-24.5-22.7-22.8,27.5-43.4,53.6-65.3,78.6-22.3,25.4-41.4,54-69.9,79.9-5.7-5.2-9.6-8.9-14.7-13.7,16.9-20.3,30.4-36.9,44.2-53.3,13.3-15.7,27.4-30.8,40.4-46.8,13.3-16.3,30.3-29.7,40.5-51.4-16.7-3.9-30.8-4.6-45-.7-50.1,63.4-99.7,126.4-148.4,188.2-11,0-18.6-.9-19.7-14.7,22-27.1,45.6-55.7,68.8-84.7,23-28.7,48.7-55.4,69.9-86.8-25.1-5.3-90.3-4.7-113,.6-2.1,8.1-3.3,17-6.8,24.9-3.8,8.6-10.7,10.9-19.6,3.2l-.2-30.1-25.8.2c-.3,14.2-.5,27.7-.9,41.2-.2,8.8.3,17.8-1.4,26.3-1.5,7.2-6.4,12.4-16.4,7.3-9.7-23.4,4-49.7-5.2-75h-17.6c-12.2,13.4,6.4,36.5-17,43.5-17.8-11-3.4-31-14.2-43.5l-40,.3c-8.1,23.5-16.9,45.2-36.2,58.2-18.3,12.3-39.2,21-59.5,31.5-7,36.6-6.5,55.7,2.1,72.2,27.1,4.9,56.4-8.1,82.6,7.6-5.1,19.1-7.4,21.6-22.9,22.8-20.5,1.5-41.1,2.8-61.6,3.5-17.5.6-27.2-7.2-29.6-25.7-2.5-19.3-2.8-39-3.9-58.5-.6-9.6-.7-19.2-.8-23.4-26.3-18.6-48.3-34.2-71.8-50.9-37.8,51.7-87.8,84.4-159.4,81.2l-.2-25.2c29.3-5,57.3-9.6,81.3-26.2,23.7-16.5,42.4-36.5,51.7-66.8-7.5-1-12.2-2-16.9-2.1-41.2-.7-82.4-.9-123.6-1.6-23.6-.5-47-1.5-70.6-2.3-7.8-.3-16-.1-18.7-10,9.7-10.4,9.7-11,20.9-11.3,61.8-1.4,123.6-2.4,185.4-3.7,9.6-.2,19.1-1,28.8-1.5,1.2-6.2,3.2-10.1,2.6-13.6-4.4-26.1-16-48-37.1-64.8-18.3-14.5-39.2-21.9-61.9-25.1-9.4-1.3-19.8-.4-26.4-9.2-1.2-13.5,8.4-14.7,17.2-15,48.3-1.6,88,15.7,118.3,53.8,3.9,4.9,8,9.8,13.1,16.2,22.7-29.9,52.5-43.5,87.5-49.9.4-20.5.2-40,1.4-59.4,1-17.5,7.6-25.9,24.8-27,27.4-1.7,54.9-1.2,82.3-.6,4.6,0,9.2,5.5,13.7,8.5-8,15-8,15.6-15.8,15.9-12.7.4-25.5-.4-38.2-.2-13.4.2-26.8,1.1-41.9,1.8-1.2,22.7-2.3,42.8-3.5,64.9,52.5,14.3,80.2,50.8,89.9,102.9,15.3.2,28.7,5,40.5-3.7,5.2-12-1.8-27.1,12.6-36,14.7,9,3.8,26.6,13.5,38l20.5-.2c8-24,.1-49.6,16.1-75.6,8.5,27.7,3.1,51.5,7.7,75.6l23.4-.2c7.6-11.7-2.6-26.2,10.9-33.8,17.1,5.5,10.6,24.2,19.3,33.5,22.8,4.1,92.9,4.6,112.7.4-4.9-6.8-9.1-13-13.8-18.8-23.3-29.1-46.9-58-70.2-87.1-12.2-15.3-24.2-30.9-35.9-46.6-4.9-6.6-7.9-13.9.5-21.5,12.7-3.3,18.8,6.6,25.2,14.9,22.6,29.6,45,59.4,67.4,89.2,18.2,24.3,36.3,48.6,54.3,72.8,12.3,1.5,23.5,4.4,35.9-3.8-18.9-28.3-36.9-55.1-54.7-82-12.5-18.8-24.9-37.6-37-56.7-3.7-5.8-6.2-12.5,2.9-17.6,12.4,5.9,18.3,17.8,25.7,27.7,26.7,36.4,52.7,73.3,79.2,109.8,3.8,5.2,9,9.3,14.9,15.3,64.7-68.1,123.7-138.8,185.8-202.2,18.3-3.9,27.5,3.2,36.4,13.8,42.3,50.3,85.1,100.1,127.8,150.1,9.4,11.1,19,22,30.3,35.1,8.2-10.4,15-18.5,21.3-27,39.1-52.9,78-105.8,117-158.7,6.3-8.4,11.6-18,24.8-22.2.9,5.2,2.8,9.2,1.7,11.8-3.2,7.1-7.4,13.8-11.8,20.2-38.2,55.9-76.7,111.6-115,167.4-3.7,5.3-6.8,11.1-10.6,17.5,53.3,6.4,272.9,5.2,298.9-1.8-.6-4.4-.6-9.3-2-13.7-13.2-42.6-43-71.7-78.7-95.8-13-8.8-27.1-15.8-40.1-24.6-3.7-2.5-5.2-8.4-9.9-16.4,31,2.6,52,17,72.2,31.4,19.8,14.2,39.9,29.3,55.5,47.7,15.7,18.6,25.9,41.7,40.7,66.4,0-11.3-.5-19.1-.1-26.8,1-17.6,2.2-35.3,3.7-52.8.6-7.3,3.5-13.3,14.9-11.1,8.5,31.6-1.2,65.4,6.9,99.1,21.2,2.2,41.1,2.4,62.9-2.8,1.3-12.3,2.4-23.8,3.6-35.3,1.3-11.9-2.4-26,13-32.8,14,8.1,8.2,21.3,10.1,32,2.1,12.2-4.3,25.5,4.7,37.9l32.7-.3c32.1-66,66.8-87.8,118.1-76,38.5,8.9,66.3,45.2,66.2,86.6-.2,49.8-26.5,75.4-77.6,89.8-43.8,12.3-77.1-10.5-106.1-68-11.7-2.9-23.9-4.9-37.9.3l.5,59.8c-7.4,4-13.8,7.5-21,11.5-20-22.5.4-49.2-11.6-72.1-18.4-4.3-37.5-3.6-59.2-1.6-.6,18.2-1.1,34.6-1.7,51-.3,6.9.5,13.9-1.1,20.5-2.6,11.1-10.8,12.5-25.6,4.1.7-19.9,1.5-40.6,2.4-66.3-38.1,76.3-100.1,124.9-160.2,127.4-2.3-5.1-4.8-10.8-8.2-18.4,12.9-6.4,24.1-12.2,35.5-17.4,28.9-13.2,55.2-30.2,75.4-55,10.3-12.6,20.3-26,19-43.5-3.4-1.2-5.2-2.5-7-2.5-89.3-.1-178.5-.1-267.8,0-3.2,0-6.4,1.9-11.8,3.6,11.2,13.8,20.3,25.3,29.6,36.5,28.1,34.1,56.4,68,84.2,102.3,5.8,7.2,14.7,13.8,10.6,27.5-4-.2-9.5,1.1-12.4-1-7.1-5.2-13.3-11.6-19.2-18.2-26-29.3-51.8-58.9-77.8-88.4-16.1-18.3-32.4-36.4-49.5-55.8l-.3-.3ZM3690.3,322.5c-55.9-65.5-106.6-124.9-159.1-186.5-54.9,61-106.6,121.4-161.8,185.6,39.1,3.4,72.8,1.5,106.5,1.7,35.2.2,70.5,0,105.7,0,33.9-.2,67.8-.5,108.8-.9h0ZM3562.7,528.8c23.8-27,113.3-154.9,121.1-172.5-20.1-4.4-286.6-4.9-309,.2,63.1,57.9,124.8,114.6,187.8,172.4h0ZM4261.7,339.5c-.3,37.5,27.3,65.2,64.3,64.6,33.7-.6,68.8-39.3,68.3-75.3-.4-30.2-31.7-60-64.4-61.2-37.6-1.4-67.9,30.6-68.2,71.9h0ZM2840.1,322.1c9.4-25.1,8.1-51.2,9.9-79.3-30.2-3.6-48.4,11.3-64.4,30.5-12.7,15.3-14.7,31.4-1.7,49.3l56.2-.4ZM2877.8,247.3c-5.9,23.7-3.8,47.4-2.8,72.3,20.7,5.7,40.3,4,60.1.6-.8-38.1-20.2-63-57.2-72.9ZM2874.9,354.6c-6.4,24.2-6.6,29.5-2.8,52.2,29.7-2.5,48.1-18.3,58.9-52.7l-56.2.4ZM2837.4,404.2l-.4-49.1c-18.4-3-36.3-2-54.5-.7,6.1,29.5,23.5,45.4,54.9,49.8Z"/>
    </g>
    <path class="cls-2" d="M3932,418.3c-7.1,2.5-13.5,1.4-18-4.8-5.2-7.1-4.7-14.4,1.1-21,9.4-10.7,18.7-7.9,30.4,9-7.8,14.3-8.4,15-13.5,16.8Z"/>
    <path class="cls-2" d="M3938,271.1c-7.1,2.5-13.5,1.4-18-4.8-5.2-7.1-4.7-14.4,1.1-21,9.4-10.7,18.7-7.9,30.4,9-7.8,14.3-8.4,15-13.5,16.8Z"/>
    <path class="cls-2" d="M2651.6,398.6c.4,7.8-6.3,14.7-14.5,14.9-9.4.2-16.5-6.9-16.1-16.4.4-7.8,4.5-12.6,12.5-13.2,9.2-.8,17.6,6.3,18.1,14.8h0Z"/>
    <path class="cls-2" d="M2650.7,280.7c.4,7.8-6.3,14.7-14.5,14.9-9.4.2-16.5-6.9-16.1-16.4.4-7.8,4.5-12.6,12.5-13.2,9.2-.8,17.6,6.3,18.1,14.8h0Z"/>
  </g>
</svg>